Coordinates
version=1
nRows=16
nColumns=28
inDegrees=yes

Units are S.I. units (second, meters, Newtons, ...)
Angles are in degrees.

endheader
time	pelvis_tilt	pelvis_list	pelvis_rotation	pelvis_tx	pelvis_ty	pelvis_tz	hip_flexion_r	hip_adduction_r	hip_rotation_r	knee_angle_r	ankle_angle_r	subtalar_angle_r	mtp_angle_r	hip_flexion_l	hip_adduction_l	hip_rotation_l	knee_angle_l	socket_flexion	socket_adduction	socket_rotation	socket_tx	socket_ty	socket_tz	foot_flex	lumbar_extension	lumbar_bending	lumbar_rotation
      0.31250000	      0.57223180	      3.67896495	      4.29802937	     -0.47366948	      1.03131741	      0.27400157	     15.08397444	     -6.82092046	     -8.14386779	    -66.34288896	     10.04107250	    -12.61694747	     -1.10511067	      3.74977406	      8.54415565	     10.79705987	     -7.47493577	      0.00000000	      0.00000000	      0.00000000	      0.00000000	     -0.01432477	      0.00000000	      0.75617186	    -12.61444554	     -5.75851771	     -4.48712485
      0.31666667	      0.69478011	      3.29800601	      4.63999074	     -0.46810882	      1.03200263	      0.27341075	     15.35332200	     -6.52575076	     -8.48036685	    -65.84773148	     11.15272452	    -11.62304152	     -0.97358763	      3.19359925	      8.10664590	     11.26667094	     -7.30509881	      0.00000000	      0.00000000	      0.00000000	      0.00000000	     -0.01472135	      0.00000000	      0.89431929	    -12.66103035	     -5.18965042	     -4.94108815
      0.32083333	      0.72645531	      3.29805444	      4.74263126	     -0.46305711	      1.03259362	      0.27331381	     15.89431185	     -6.59282951	     -8.48340074	    -65.49049641	     11.21365153	    -11.59869693	     -0.97157703	      2.83429340	      8.08339044	     11.29944758	     -7.27879950	      0.00000000	      0.00000000	      0.00000000	      0.00000000	     -0.01448042	      0.00000000	      0.96162883	    -12.77430413	     -5.16124486	     -4.96060351
      0.32500000	      0.76561544	      3.22008630	      4.90095953	     -0.45740081	      1.03326087	      0.27325304	     16.28119797	     -6.54087450	     -8.52693705	    -64.94867993	     11.59333627	    -11.36897858	     -0.93727702	      2.32895177	      7.93680366	     11.55623623	     -7.05499284	      0.00000000	      0.00000000	      0.00000000	      0.00000000	     -0.01423278	      0.00000000	      1.16097695	    -12.72845095	     -5.06115359	     -5.10278121
      0.32916667	      0.80180370	      3.20277370	      4.99572474	     -0.45248736	      1.03372893	      0.27314403	     16.82345380	     -6.60190597	     -8.55243991	    -64.55649475	     11.68988891	    -11.33248437	     -0.92769702	      1.98941120	      7.89627184	     11.58048716	     -7.05384764	      0.00000000	      0.00000000	      0.00000000	      0.00000000	     -0.01412073	      0.00000000	      1.20723303	    -12.86374053	     -5.00370228	     -5.12630662
      0.33333333	      1.03793430	      2.74489885	      5.52136291	     -0.44686357	      1.03454469	      0.27224667	     16.79565411	     -6.28790831	     -9.15135043	    -63.75206657	     12.74649130	    -10.21391156	     -0.93720159	      1.32835986	      7.35776766	     12.21830583	     -6.90340616	      0.00000000	      0.00000000	      0.00000000	      0.00000000	     -0.01458400	      0.00000000	      1.34717230	    -13.04143360	     -4.26655602	     -5.76539196
      0.33750000	      1.07292096	      2.75315476	      5.63232568	     -0.44148908	      1.03506878	      0.27221051	     17.21156625	     -6.35742117	     -9.18543723	    -63.17690554	     12.90061189	    -10.16931310	     -0.96443576	      0.89870957	      7.31839897	     12.33062503	     -6.78867983	      0.00000000	      0.00000000	      0.00000000	      0.00000000	     -0.01432560	      0.00000000	      1.47715828	    -13.07499330	     -4.27532627	     -5.84780228
      0.34166667	      1.12795346	      2.70011086	      5.78860670	     -0.43616366	      1.03559901	      0.27213993	     17.57330049	     -6.36186170	     -9.27121214	    -62.52984325	     13.18933007	    -10.07399052	     -0.98476058	      0.45842199	      7.20049719	     12.49223559	     -6.67668435	      0.00000000	      0.00000000	      0.00000000	      0.00000000	     -0.01412952	      0.00000000	      1.59940640	    -13.11384183	     -4.19261105	     -5.96712214
      0.34583333	      1.15232835	      2.69974675	      5.86900726	     -0.43128361	      1.03587350	      0.27212443	     18.08933162	     -6.43861501	     -9.30351071	    -62.03599533	     13.28810770	    -10.05855213	     -0.98644520	      0.12679280	      7.16433762	     12.52464517	     -6.65852688	      0.00000000	      0.00000000	      0.00000000	      0.00000000	     -0.01410864	      0.00000000	      1.65705886	    -13.24757873	     -4.13725815	     -5.99265299
      0.35000000	      1.60872382	      2.27791516	      6.53148135	     -0.42576067	      1.03705832	      0.27104186	     17.68633534	     -6.20292396	    -10.10788902	    -60.93248589	     14.02214542	     -9.37739315	     -1.51111338	     -0.74367137	      6.61463439	     13.25939103	     -6.53617506	      0.00000000	      0.00000000	      0.00000000	      0.00000000	     -0.01436996	      0.00000000	      1.78023698	    -13.65630030	     -3.39960658	     -6.85120679
      0.35416667	      1.61888775	      2.30127439	      6.57867314	     -0.42084367	      1.03721648	      0.27109672	     18.19790029	     -6.30454260	    -10.12418979	    -60.38687102	     14.11560167	     -9.39871234	     -1.51958460	     -1.07589477	      6.59310104	     13.28527552	     -6.49014302	      0.00000000	      0.00000000	      0.00000000	      0.00000000	     -0.01433917	      0.00000000	      1.86365517	    -13.75986041	     -3.39936345	     -6.86133181
      0.35833333	      1.61027381	      2.31549084	      6.69423999	     -0.41522755	      1.03769326	      0.27117701	     18.49560953	     -6.33236795	    -10.12806083	    -59.49277200	     14.37230709	     -9.44820052	     -1.54547240	     -1.48545238	      6.53511879	     13.39974931	     -6.34596796	      0.00000000	      0.00000000	      0.00000000	      0.00000000	     -0.01393159	      0.00000000	      2.04463436	    -13.64641650	     -3.45019302	     -6.90229067
      0.36250000	      1.97192272	      1.98201031	      7.15822066	     -0.41007094	      1.03847508	      0.27053551	     18.31885954	     -6.11291420	    -10.70561742	    -58.48492986	     14.89874486	     -9.44752470	     -2.42256986	     -2.21158793	      6.06314683	     13.90136931	     -6.23118870	      0.00000000	      0.00000000	      0.00000000	      0.00000000	     -0.01425863	      0.00000000	      2.14792711	    -14.04652384	     -2.86941399	     -7.44843716
      0.36666667	      1.95775927	      2.01775157	      7.23326051	     -0.40487112	      1.03869660	      0.27060709	     18.70730131	     -6.20490193	    -10.71861902	    -57.67892654	     15.06064497	     -9.48970906	     -2.46834728	     -2.55050240	      6.04335725	     13.93943050	     -6.16986193	      0.00000000	      0.00000000	      0.00000000	      0.00000000	     -0.01406878	      0.00000000	      2.26710830	    -14.03691520	     -2.91221133	     -7.45757987
      0.37083333	      1.94357371	      2.02919384	      7.33022349	     -0.39967494	      1.03888695	      0.27068358	     19.06733600	     -6.26198704	    -10.77430971	    -56.82116995	     15.25077914	     -9.56228914	     -2.51772062	     -2.88900303	      5.99619201	     14.00890076	     -6.09697495	      0.00000000	      0.00000000	      0.00000000	      0.00000000	     -0.01389695	      0.00000000	      2.38909860	    -14.02481796	     -2.91971660	     -7.48054729
      0.37500000	      2.03804693	      1.76171801	      7.65590740	     -0.39446620	      1.03918916	      0.27031146	     19.18485940	     -6.07986412	    -11.15406558	    -55.76123791	     15.63638708	     -9.87614247	     -2.85747442	     -3.31142903	      5.61914684	     14.36925180	     -6.02318374	      0.00000000	      0.00000000	      0.00000000	      0.00000000	     -0.01415815	      0.00000000	      2.50808324	    -14.09640590	     -2.52129997	     -7.66659781
